<?xml version="1.0" encoding="UTF-8" standalone="no"?>
<!-- Uploaded to: SVG Repo, www.svgrepo.com, Generator: SVG Repo Mixer Tools -->

<svg
   width="800px"
   height="800px"
   viewBox="0 0 24 24"
   fill="none"
   version="1.1"
   id="svg8"
   sodipodi:docname="pause-alt-svgrepo-com.svg"
   inkscape:version="1.1.2 (0a00cf5339, 2022-02-04)"
   xmlns:inkscape="http://www.inkscape.org/namespaces/inkscape"
   xmlns:sodipodi="http://sodipodi.sourceforge.net/DTD/sodipodi-0.dtd"
   xmlns="http://www.w3.org/2000/svg"
   xmlns:svg="http://www.w3.org/2000/svg">
  <defs
     id="defs12" />
  <sodipodi:namedview
     id="namedview10"
     pagecolor="#ffffff"
     bordercolor="#666666"
     borderopacity="1.0"
     inkscape:pageshadow="2"
     inkscape:pageopacity="0.0"
     inkscape:pagecheckerboard="0"
     showgrid="false"
     inkscape:zoom="1.09125"
     inkscape:cx="400"
     inkscape:cy="400.45819"
     inkscape:window-width="854"
     inkscape:window-height="1376"
     inkscape:window-x="2580"
     inkscape:window-y="28"
     inkscape:window-maximized="1"
     inkscape:current-layer="svg8" />
  <rect
     width="24"
     height="24"
     fill="white"
     id="rect2"
     style="fill:none" />
  <path
     fill-rule="evenodd"
     clip-rule="evenodd"
     d="M20 5L20 19C20 20.6569 18.6569 22 17 22L16 22C14.3431 22 13 20.6569 13 19L13 5C13 3.34314 14.3431 2 16 2L17 2C18.6569 2 20 3.34315 20 5Z"
     fill="#323232"
     id="path4"
     style="fill:#ffffff" />
  <path
     fill-rule="evenodd"
     clip-rule="evenodd"
     d="M8 2C9.65685 2 11 3.34315 11 5L11 19C11 20.6569 9.65685 22 8 22L7 22C5.34315 22 4 20.6569 4 19L4 5C4 3.34314 5.34315 2 7 2L8 2Z"
     fill="#323232"
     id="path6"
     style="fill:#ffffff" />
</svg>
